<svg xmlns="http://www.w3.org/2000/svg" width="800" height="84" viewBox="0 0 800 84">
  <path id="パス_35" data-name="パス 35" d="M61.4,33H10V10H61.4Zm58.3-23H68.3V33h51.4V10Zm0,30.2H68.3v23h51.4v-23ZM178.1,10H126.7V33h51.4Zm0,30.2H126.7v23h51.4Zm0,30.2H126.7v23h51.4Zm159-6.4V50.1H312.9V64Zm8.2-54H304.7L292.6,21.8V94h14.5V23.9h35.7V94h14.5V21.8ZM669,58V44.2H635.7V58Zm5.4-48H615.5V94h58.9V80.2H630V23.9h44.4Zm45.4,70.2H691.1V94h52.5V80.2Zm-14.1-5.8V10H691.1V74.4Zm-429.9,0V56.5L263.7,44H226.2V29.6H211.7v17l11.4,11.1h38.1V74.3h14.6Zm-14.5,5.8H211.8V94h52l12.1-12.5V80.2Zm-35-56.3h49.5V10h-52L211.7,21.8v2h14.6ZM438.8,74.4V45.1H402.5V59h21.7V74.5h14.6Zm-50-50.5h50V10H387.3l-13,11.8v2.1Zm35.4,56.3H388.8V29.6H374.3V82.2L386.5,94h40.4l11.8-11.8v-2ZM500.1,64V50.1H475.9V64Zm8.2-54H467.7L455.6,21.8V94h14.5V23.9h35.7V94h14.5V21.8Zm28.9,64.4h14.5V29.6H537.2ZM549.5,10,537.2,21.8v2h61.4V10Zm2.2,70.2H537.2v2L549.5,94h49.1V80.2H551.7Zm234.4,0H757.4V94H810V80.2Zm-14-5.8V10H757.5V74.4Z" transform="translate(-10 -10)" fill="#fff"/>
</svg>
