<svg xmlns="http://www.w3.org/2000/svg" width="40.838" height="24.996" viewBox="0 0 40.838 24.996">
  <g id="キーボードアイコン2" transform="translate(0 -99.307)">
    <path id="パス_12" data-name="パス 12" d="M36.656,99.307H4.181A4.187,4.187,0,0,0,0,103.489v15.384a5.436,5.436,0,0,0,5.429,5.43H35.408a5.436,5.436,0,0,0,5.429-5.43V103.489A4.187,4.187,0,0,0,36.656,99.307Zm2.069,19.566a3.321,3.321,0,0,1-3.317,3.317H5.429a3.321,3.321,0,0,1-3.317-3.317V103.489a2.071,2.071,0,0,1,2.069-2.069H36.656a2.071,2.071,0,0,1,2.069,2.069v15.384Z" fill="#107c41"/>
    <rect id="長方形_4" data-name="長方形 4" width="3.52" height="3.521" transform="translate(15.138 110.045)" fill="#107c41"/>
    <rect id="長方形_5" data-name="長方形 5" width="3.52" height="3.521" transform="translate(20.419 110.045)" fill="#107c41"/>
    <rect id="長方形_6" data-name="長方形 6" width="3.52" height="3.521" transform="translate(25.7 110.045)" fill="#107c41"/>
    <rect id="長方形_7" data-name="長方形 7" width="3.52" height="3.52" transform="translate(32.741 115.326)" fill="#107c41"/>
    <rect id="長方形_8" data-name="長方形 8" width="3.52" height="3.52" transform="translate(15.138 104.764)" fill="#107c41"/>
    <rect id="長方形_9" data-name="長方形 9" width="3.52" height="3.521" transform="translate(9.857 110.045)" fill="#107c41"/>
    <rect id="長方形_10" data-name="長方形 10" width="3.52" height="3.52" transform="translate(9.857 104.764)" fill="#107c41"/>
    <rect id="長方形_11" data-name="長方形 11" width="3.52" height="3.52" transform="translate(4.577 115.326)" fill="#107c41"/>
    <rect id="長方形_12" data-name="長方形 12" width="3.52" height="3.521" transform="translate(4.577 110.045)" fill="#107c41"/>
    <rect id="長方形_13" data-name="長方形 13" width="3.52" height="3.52" transform="translate(4.577 104.764)" fill="#107c41"/>
    <rect id="長方形_14" data-name="長方形 14" width="3.52" height="3.52" transform="translate(20.419 104.764)" fill="#107c41"/>
    <rect id="長方形_15" data-name="長方形 15" width="3.52" height="3.52" transform="translate(25.7 104.764)" fill="#107c41"/>
    <rect id="長方形_16" data-name="長方形 16" width="21.123" height="3.52" transform="translate(9.857 115.326)" fill="#107c41"/>
    <rect id="長方形_17" data-name="長方形 17" width="5.281" height="8.801" transform="translate(30.98 104.764)" fill="#107c41"/>
  </g>
</svg>
