<svg id="豆電球のアイコン素材_その2" data-name="豆電球のアイコン素材 その2" xmlns="http://www.w3.org/2000/svg" width="10.314" height="11.5" viewBox="0 0 10.314 11.5">
  <path id="パス_17" data-name="パス 17" d="M144.073,107.424a4.064,4.064,0,0,0-2.2,2.2.693.693,0,0,0,.375.908.685.685,0,0,0,.266.052.694.694,0,0,0,.642-.43,2.7,2.7,0,0,1,1.445-1.445.694.694,0,1,0-.53-1.283Z" transform="translate(-139.447 -105.127)" fill="#fff"/>
  <path id="パス_18" data-name="パス 18" d="M192.1,440.2h3.283l.162-.844h-3.608Z" transform="translate(-188.564 -429.875)" fill="#fff"/>
  <path id="パス_19" data-name="パス 19" d="M217.855,484.149c.592,0,1.072-.357,1.072-.8h-2.145C216.783,483.792,217.263,484.149,217.855,484.149Z" transform="translate(-212.712 -472.649)" fill="#fff"/>
  <path id="パス_20" data-name="パス 20" d="M88.7,351.614c.1.1.194.2.3.3l.7-.762c-.076-.073-.151-.148-.223-.225Z" transform="translate(-87.01 -343.184)" fill="#fff"/>
  <path id="パス_21" data-name="パス 21" d="M27.964,212.084q0,.117,0,.235,0,.094,0,.189l.736-.038h.295c0-.05,0-.1,0-.151s0-.119,0-.178Z" transform="translate(-27.96 -207.355)" fill="#fff"/>
  <path id="パス_22" data-name="パス 22" d="M91.1,54.343l-.69-.768q-.155.144-.3.3l.763.7Q90.987,54.451,91.1,54.343Z" transform="translate(-88.386 -52.085)" fill="#fff"/>
  <path id="パス_23" data-name="パス 23" d="M249.383,1.032l.173,0L249.611,0c-.076,0-.153,0-.229,0l-.192,0,.064,1.031Z" transform="translate(-244.225 0)" fill="#fff"/>
  <path id="パス_24" data-name="パス 24" d="M447.835,213.649l-1.031.053c0,.049,0,.1,0,.148s0,.126,0,.188l1.031.06q.005-.123,0-.248C447.839,213.784,447.837,213.717,447.835,213.649Z" transform="translate(-437.524 -208.887)" fill="#fff"/>
  <path id="パス_25" data-name="パス 25" d="M387.341,55.426q.115.109.223.224l.769-.689c-.1-.1-.2-.2-.3-.3Z" transform="translate(-379.716 -53.142)" fill="#fff"/>
  <path id="パス_26" data-name="パス 26" d="M386.081,352.708l.687.77c.1-.095.2-.194.3-.3l-.762-.7C386.233,352.562,386.158,352.637,386.081,352.708Z" transform="translate(-378.491 -344.71)" fill="#fff"/>
  <path id="パス_27" data-name="パス 27" d="M115.422,83.2a2.842,2.842,0,0,0-4.046,0,2.893,2.893,0,0,0-.838,2.043,3.59,3.59,0,0,0,.935,2.332,4.308,4.308,0,0,1,.769.935h-.307l.129.671h2.7l.127-.671h-.34a4.309,4.309,0,0,1,.769-.935,3.59,3.59,0,0,0,.935-2.332A2.9,2.9,0,0,0,115.422,83.2Zm-2.289,4.916a.11.11,0,0,1-.028.007.092.092,0,0,1-.093-.04l-.753-1.352a.073.073,0,0,1,.046-.1.1.1,0,0,1,.121.033l.753,1.352A.073.073,0,0,1,113.133,88.113ZM113.12,83.8a1.9,1.9,0,0,0-.611.414,1.939,1.939,0,0,0-.41.617.491.491,0,0,1-.454.307.481.481,0,0,1-.188-.037.5.5,0,0,1-.265-.648,2.887,2.887,0,0,1,1.554-1.568.491.491,0,0,1,.642.268A.5.5,0,0,1,113.12,83.8Zm1.416,2.873-.833,1.39a.1.1,0,0,1-.1.044.1.1,0,0,1-.028-.006.067.067,0,0,1-.041-.1l.833-1.39a.105.105,0,0,1,.123-.039A.067.067,0,0,1,114.536,86.674Z" transform="translate(-108.242 -80.061)" fill="#fff"/>
</svg>
