<svg id="売り上げアップグラフのアイコン" xmlns="http://www.w3.org/2000/svg" width="40.423" height="40.423" viewBox="0 0 40.423 40.423">
  <path id="パス_7" data-name="パス 7" d="M65.074,313.052h4.167a1.074,1.074,0,0,0,1.074-1.074v-9.419a1.074,1.074,0,0,0-1.074-1.074H65.074A1.075,1.075,0,0,0,64,302.559v9.419A1.075,1.075,0,0,0,65.074,313.052Z" transform="translate(-58.947 -277.683)" fill="#107c41"/>
  <path id="パス_8" data-name="パス 8" d="M185.074,239.368h4.167a1.074,1.074,0,0,0,1.074-1.074V222.559a1.074,1.074,0,0,0-1.074-1.074h-4.167A1.074,1.074,0,0,0,184,222.559v15.735A1.075,1.075,0,0,0,185.074,239.368Z" transform="translate(-169.473 -203.999)" fill="#107c41"/>
  <path id="パス_9" data-name="パス 9" d="M305.074,150.948h4.167a1.074,1.074,0,0,0,1.074-1.074V126.559a1.074,1.074,0,0,0-1.074-1.074h-4.167A1.074,1.074,0,0,0,304,126.559v23.314A1.075,1.075,0,0,0,305.074,150.948Z" transform="translate(-279.999 -115.578)" fill="#107c41"/>
  <path id="パス_10" data-name="パス 10" d="M425.074,62.527h4.167a1.074,1.074,0,0,0,1.074-1.074V30.559a1.074,1.074,0,0,0-1.074-1.074h-4.167A1.074,1.074,0,0,0,424,30.559V61.453A1.075,1.075,0,0,0,425.074,62.527Z" transform="translate(-390.525 -27.157)" fill="#107c41"/>
  <path id="パス_11" data-name="パス 11" d="M39.348,38.054H3.6A1.075,1.075,0,0,1,2.526,36.98V1.074A1.075,1.075,0,0,0,1.452,0H1.075A1.075,1.075,0,0,0,0,1.074V39.348a1.075,1.075,0,0,0,1.074,1.075H39.348a1.074,1.074,0,0,0,1.074-1.074v-.22A1.074,1.074,0,0,0,39.348,38.054Z" fill="#107c41"/>
</svg>
